<svg xmlns="http://www.w3.org/2000/svg" xmlns:xlink="http://www.w3.org/1999/xlink" width="500" zoomAndPan="magnify" viewBox="0 0 375 374.999991" height="500" preserveAspectRatio="xMidYMid meet" version="1.0"><defs><clipPath id="1c1e2feaa4"><path d="M 98.441406 54.082031 L 276.667969 54.082031 L 276.667969 320.59375 L 98.441406 320.59375 Z M 98.441406 54.082031 " clip-rule="nonzero"/></clipPath><clipPath id="401226995d"><path d="M 199 207.410156 L 247.628906 207.410156 L 247.628906 288 L 199 288 Z M 199 207.410156 " clip-rule="nonzero"/></clipPath></defs><g clip-path="url(#1c1e2feaa4)"><path fill="#000000" d="M 276.679688 245.289062 C 276.679688 286.972656 243.070312 320.515625 201.3125 320.515625 L 131.679688 320.515625 C 144.171875 316.988281 155.605469 310.332031 165.023438 300.933594 C 179.558594 286.421875 187.5625 267.113281 187.5625 246.554688 L 187.5625 79.738281 L 117.527344 79.738281 L 117.527344 113.523438 L 153.714844 113.523438 L 153.714844 246.554688 C 153.714844 270.3125 134.347656 289.636719 110.550781 289.636719 C 106.351562 289.636719 102.285156 289.03125 98.441406 287.914062 L 98.441406 54.160156 L 169.738281 54.160156 C 205.898438 54.667969 234.925781 83.648438 234.925781 119.730469 C 234.925781 140.566406 224.738281 158.871094 209.460938 171.070312 C 247.144531 175.140625 276.679688 206.65625 276.679688 245.289062 Z M 276.679688 245.289062 " fill-opacity="1" fill-rule="nonzero"/></g><g clip-path="url(#401226995d)"><path fill="#ffffff" d="M 222.683594 210.890625 L 223.605469 229.53125 C 223.796875 233.429688 222.164062 237.191406 219.1875 239.707031 C 215.964844 242.425781 214.324219 246.59375 214.847656 250.785156 C 216.410156 263.242188 217.503906 279.441406 217.503906 281.496094 C 217.503906 284.890625 214.757812 287.644531 211.375 287.644531 C 207.992188 287.644531 205.25 284.890625 205.25 281.496094 C 205.25 279.441406 206.339844 263.261719 207.898438 250.808594 C 208.421875 246.632812 206.792969 242.480469 203.59375 239.757812 L 203.53125 239.707031 C 200.574219 237.191406 198.953125 233.441406 199.144531 229.558594 L 200.066406 210.890625 C 200.121094 209.8125 201.003906 208.96875 202.078125 208.96875 C 203.191406 208.96875 204.09375 209.875 204.09375 210.988281 L 204.09375 226.539062 C 204.09375 227.875 205.171875 228.957031 206.503906 228.957031 C 207.835938 228.957031 208.914062 227.875 208.914062 226.539062 L 208.914062 211.4375 C 208.914062 210.074219 210.015625 208.96875 211.375 208.96875 C 212.734375 208.96875 213.835938 210.074219 213.835938 211.4375 L 213.835938 226.539062 C 213.835938 227.875 214.917969 228.957031 216.246094 228.957031 C 217.578125 228.957031 218.660156 227.875 218.660156 226.539062 L 218.660156 210.988281 C 218.660156 209.875 219.5625 208.96875 220.671875 208.96875 C 221.746094 208.96875 222.632812 209.8125 222.683594 210.890625 Z M 245.28125 207.574219 L 245.28125 207.546875 C 245.246094 207.546875 245.203125 207.5625 245.167969 207.5625 C 245.121094 207.558594 245.074219 207.546875 245.023438 207.546875 C 244.855469 207.546875 244.703125 207.613281 244.539062 207.644531 C 244.53125 207.644531 244.527344 207.644531 244.519531 207.648438 C 244.238281 207.703125 243.976562 207.789062 243.734375 207.921875 C 240.277344 209.546875 234.410156 217.90625 232.136719 235.386719 C 231.398438 241.074219 231.628906 245.886719 232.039062 249.257812 C 232.425781 252.460938 234.246094 255.3125 236.933594 257.082031 C 238.242188 257.941406 238.984375 259.441406 238.878906 261.003906 L 237.578125 282.203125 C 237.363281 285.425781 240.179688 288.113281 243.507812 287.574219 C 246 287.171875 247.742188 284.863281 247.742188 282.332031 L 247.742188 210.277344 C 247.742188 208.859375 246.660156 207.707031 245.28125 207.574219 Z M 245.28125 207.574219 " fill-opacity="1" fill-rule="nonzero"/></g></svg>